<?xml version="1.0" encoding="UTF-8" standalone="no"?>
<svg
   xmlns:dc="http://purl.org/dc/elements/1.1/"
   xmlns:cc="http://creativecommons.org/ns#"
   xmlns:rdf="http://www.w3.org/1999/02/22-rdf-syntax-ns#"
   xmlns:svg="http://www.w3.org/2000/svg"
   xmlns="http://www.w3.org/2000/svg"
   viewBox="0 0 283.46667 283.46667"
   height="283.46667"
   width="283.46667"
   xml:space="preserve"
   id="svg2"
   version="1.1"><metadata
     id="metadata8"><rdf:RDF><cc:Work
         rdf:about=""><dc:format>image/svg+xml</dc:format><dc:type
           rdf:resource="http://purl.org/dc/dcmitype/StillImage" /></cc:Work></rdf:RDF></metadata><defs
     id="defs6" /><g
     transform="matrix(1.3333333,0,0,-1.3333333,0,283.46667)"
     id="g10"><g
       transform="scale(0.1)"
       id="g12"><path
         id="path14"
         style="fill:#ffffff;fill-opacity:1;fill-rule:nonzero;stroke:none"
         d="M 2126,2126 V 0 H 0 v 2126 h 2126" /><path
         id="path16"
         style="fill:#192442;fill-opacity:1;fill-rule:nonzero;stroke:none"
         d="M 335.93,855.199 H 197.938 v 62.723 h 124.011 v 43.726 H 197.938 v 54.842 h 135.125 v 47.32 H 141.664 V 807.879 H 335.93 v 47.32" /><path
         id="path18"
         style="fill:#192442;fill-opacity:1;fill-rule:nonzero;stroke:none"
         d="m 540.602,807.879 v 185.32 h -50.899 v -97.14 c 0,-37.637 -11.824,-53.047 -39.422,-53.047 -23.656,0 -32.617,15.047 -32.617,45.519 V 993.199 H 366.766 V 879.211 c 0,-45.879 13.617,-76.352 67.742,-76.352 21.504,0 43.726,10.039 56.633,30.832 h 1.074 v -25.812 h 48.387" /><path
         id="path20"
         style="fill:#192442;fill-opacity:1;fill-rule:nonzero;stroke:none"
         d="m 584.699,993.199 v -185.32 h 50.899 v 83.519 c 0,32.622 12.902,59.5 50.179,59.5 6.09,0 13.621,-0.718 18.278,-1.796 v 47.32 c -3.223,1.066 -7.524,1.789 -11.11,1.789 -24.73,0 -49.82,-16.129 -59.14,-39.43 h -0.715 v 34.418 h -48.391" /><path
         id="path22"
         style="fill:#192442;fill-opacity:1;fill-rule:nonzero;stroke:none"
         d="m 759.254,900.352 c 0,29.757 10.398,59.507 44.805,59.507 34.765,0 45.164,-29.75 45.164,-59.507 0,-29.383 -10.399,-59.141 -45.164,-59.141 -34.407,0 -44.805,29.758 -44.805,59.141 z m 140.867,0 c 0,59.148 -37.637,97.859 -96.062,97.859 -58.067,0 -95.704,-38.711 -95.704,-97.859 0,-58.782 37.637,-97.493 95.704,-97.493 58.425,0 96.062,38.711 96.062,97.493" /><path
         id="path24"
         style="fill:#192442;fill-opacity:1;fill-rule:nonzero;stroke:none"
         d="m 1017.69,841.211 c -32.971,0 -44.44,28.687 -44.44,58.789 0,30.109 10.75,59.859 44.09,59.859 32.61,0 44.44,-30.468 44.44,-59.859 0,-30.102 -10.75,-58.789 -44.09,-58.789 z m 10.75,157 c -22.94,0 -43.006,-8.961 -55.19,-28.68 h -0.719 v 23.668 H 924.145 V 742.648 h 50.898 v 88.172 h 0.711 c 12.187,-18.281 33.336,-27.961 55.556,-27.961 54.12,0 81.37,46.243 81.37,95.711 0,52.68 -26.17,99.641 -84.24,99.641" /><path
         id="path26"
         style="fill:#192442;fill-opacity:1;fill-rule:nonzero;stroke:none"
         d="m 1223.79,959.859 c 24.74,0 35.85,-13.629 40.51,-39.429 h -82.8 c 0.72,14.34 10.04,39.429 42.29,39.429 z m -93.18,-59.507 c 0,-57.34 36.2,-97.493 94.62,-97.493 41.94,0 72.4,18.653 86.74,62.371 h -44.8 c -3.23,-11.468 -19.72,-24.019 -40.15,-24.019 -28.32,0 -44.09,14.699 -45.52,46.969 h 133.7 c 3.58,56.98 -26.89,110.031 -89.97,110.031 -56.27,0 -94.62,-42.301 -94.62,-97.859" /><path
         id="path28"
         style="fill:#192442;fill-opacity:1;fill-rule:nonzero;stroke:none"
         d="m 1455.35,879.57 c 0,-11.109 -1.43,-42.648 -41.22,-42.648 -16.49,0 -31.18,4.648 -31.18,23.648 0,18.641 14.34,24.012 30.11,27.25 15.77,2.86 33.69,3.219 42.29,10.75 z m -60.22,35.129 c -31.53,-4.308 -63.08,-14.347 -63.08,-56.277 0,-37.992 27.96,-55.563 63.08,-55.563 22.59,0 46.24,6.102 62.37,22.942 0.36,-6.09 1.79,-12.18 3.59,-17.922 h 51.61 c -4.66,7.531 -6.46,24.383 -6.46,41.223 v 96.418 c 0,44.441 -44.44,52.691 -81.36,52.691 -41.58,0 -84.22,-14.34 -87.09,-62.012 h 50.89 c 1.79,20.071 14.34,27.961 33.7,27.961 17.91,0 32.97,-3.23 32.97,-25.09 0,-20.789 -29.03,-19.711 -60.22,-24.371" /><path
         id="path30"
         style="fill:#192442;fill-opacity:1;fill-rule:nonzero;stroke:none"
         d="m 1595.15,967.379 h -1.09 v 25.82 h -48.37 v -185.32 h 50.89 v 97.141 c 0,37.628 11.83,53.05 39.43,53.05 23.65,0 32.62,-15.058 32.62,-45.531 v -104.66 h 50.88 v 113.992 c 0,45.879 -13.61,76.34 -67.73,76.34 -21.51,0 -43.73,-10.031 -56.63,-30.832" /><path
         id="path32"
         style="fill:#192442;fill-opacity:1;fill-rule:nonzero;stroke:none"
         d="M 2100.98,25.0195 H 25 V 2101 H 2100.98 Z M 0,2126 V 0.0195313 H 2125.98 V 2126 H 0" /><path
         id="path34"
         style="fill:#192442;fill-opacity:1;fill-rule:nonzero;stroke:none"
         d="M 260.828,141.859 382.906,331.512 502.691,141.859 H 646.273 L 455.086,428.25 630.918,690.082 H 498.852 L 387.516,515.02 280.023,690.082 H 140.281 L 316.879,429.031 124.918,141.859 h 135.91" /><path
         id="path36"
         style="fill:#192442;fill-opacity:1;fill-rule:nonzero;stroke:none"
         d="m 675.418,141.859 h 120.547 v 226.5 h 229.575 v 93.68 H 795.965 V 588.73 H 1060.87 V 690.082 H 675.418 V 141.859" /><path
         id="path38"
         style="fill:#192442;fill-opacity:1;fill-rule:nonzero;stroke:none"
         d="m 1232.05,377.582 h 265.67 v 93.668 h -265.67 v 117.48 h 289.48 V 690.082 H 1111.51 V 141.859 h 416.16 v 101.36 h -295.62 v 134.363" /><path
         id="path40"
         style="fill:#192442;fill-opacity:1;fill-rule:nonzero;stroke:none"
         d="M 1717.28,690.082 H 1596.73 V 141.859 h 387.76 v 101.36 h -267.21 v 446.863" /><path
         id="path42"
         style="fill:#192442;fill-opacity:1;fill-rule:nonzero;stroke:none"
         d="m 1689.43,1983.5 h -413.1 l -0.01,-140.96 h 413.1 l 0.01,140.96" /><path
         id="path44"
         style="fill:#192442;fill-opacity:1;fill-rule:nonzero;stroke:none"
         d="M 1217.13,1983.5 H 141.738 l -0.008,-140.96 h 1075.39 l 0.01,140.96" /><path
         id="path46"
         style="fill:#f57f13;fill-opacity:1;fill-rule:nonzero;stroke:none"
         d="m 1748.3,1983.5 h 235.95 v -140.96 h -235.96 l 0.01,140.96" /></g></g></svg>